<svg width="42" height="32" viewBox="0 0 42 32" fill="none" xmlns="http://www.w3.org/2000/svg">
<g clip-path="url(#clip0_36_7)">
<path opacity="0.07" d="M38.6798 0H3.32016C1.43873 0 0 1.7355 0 4.00501V27.995C0 30.2645 1.54941 32 3.32016 32H38.6798C40.5613 32 42 30.2645 42 27.995V3.99166C41.9889 1.72215 40.4395 0 38.6798 0Z" fill="#010202"/>
<path d="M38.6798 1.33501C39.8972 1.33501 40.8933 2.53651 40.8933 4.00501V27.995C40.8933 29.4635 39.8972 30.665 38.6798 30.665H3.32016C2.10277 30.665 1.10672 29.4635 1.10672 27.995V3.99166C1.10672 2.52316 2.10277 1.32166 3.32016 1.32166H38.6798" fill="#286CB4"/>
<path d="M9.91622 13.6838L10.7684 16.1802H9.06404L9.91622 13.6838ZM27.6791 13.7906H24.3921V14.8986H27.6237V16.554H24.3921V17.7822H27.6791V18.7701L29.97 15.7797L27.6791 12.6558V13.7906ZM12.1407 10.6667H16.5565L17.5415 13.2432L18.449 10.6533H29.9036L31.0988 12.242L32.3273 10.6533H37.5842L33.6996 15.7931L37.551 20.8928H32.2055L31.0103 19.3041L29.7708 20.8928H11.0893L10.547 19.3041H9.29645L8.75416 20.8928H4.43796L8.068 10.6533H11.853L12.1407 10.6667ZM21.7138 12.1085H19.2348L17.5747 16.821L15.7818 12.1085H13.3249V18.5165L11.0451 12.1085H8.8427L6.20871 19.451H7.92412L8.46642 17.8623H11.355L11.8972 19.451H14.9075V14.2044L16.8443 19.451H18.1613L20.087 14.2178V19.451H21.7028L21.7138 12.1085ZM32.0285 15.7931L34.8285 12.1085H32.8142L31.0435 14.4047L29.3281 12.1085H22.8206V19.4643H29.2395L31.0214 17.1414L32.7368 19.4643H34.8063L32.0285 15.7931Z" fill="white"/>
</g>
<defs>
<clipPath id="clip0_36_7">
<rect width="42" height="32" fill="white"/>
</clipPath>
</defs>
</svg>
