<svg width="31" height="19" viewBox="0 0 31 19" fill="none" xmlns="http://www.w3.org/2000/svg">
<path fill-rule="evenodd" clip-rule="evenodd" d="M15.2422 16.4392C13.6402 17.7699 11.5622 18.5733 9.29152 18.5733C4.22493 18.5733 0.117645 14.5737 0.117645 9.63996C0.117645 4.70622 4.22493 0.706627 9.29152 0.706627C11.5622 0.706627 13.6402 1.50998 15.2422 2.84073C16.8442 1.50998 18.9222 0.706627 21.1929 0.706627C26.2595 0.706627 30.3667 4.70622 30.3667 9.63996C30.3667 14.5737 26.2595 18.5733 21.1929 18.5733C18.9222 18.5733 16.8442 17.7699 15.2422 16.4392Z" fill="#ED0006"/>
<path fill-rule="evenodd" clip-rule="evenodd" d="M15.242 16.4393C17.2146 14.8008 18.4654 12.3626 18.4654 9.63996C18.4654 6.9173 17.2146 4.47912 15.242 2.84058C16.844 1.50992 18.9219 0.706627 21.1925 0.706627C26.2591 0.706627 30.3664 4.70622 30.3664 9.63996C30.3664 14.5737 26.2591 18.5733 21.1925 18.5733C18.9219 18.5733 16.844 17.77 15.242 16.4393Z" fill="#F9A000"/>
<path fill-rule="evenodd" clip-rule="evenodd" d="M15.2422 16.4392C17.2147 14.8006 18.4654 12.3625 18.4654 9.63994C18.4654 6.91737 17.2147 4.47927 15.2422 2.84073C13.2698 4.47927 12.019 6.91737 12.019 9.63994C12.019 12.3625 13.2698 14.8006 15.2422 16.4392Z" fill="#FF5E00"/>
</svg>
