<svg width="39" height="15" viewBox="0 0 39 15" fill="none" xmlns="http://www.w3.org/2000/svg">
<path d="M16.9069 14.75H13.7245L15.7135 0.258934H18.8961L16.9069 14.75ZM11.0474 0.258934L8.01351 10.226L7.6545 8.07969L7.65483 8.08047L6.58403 1.56369C6.58403 1.56369 6.45455 0.258934 5.07445 0.258934H0.0588532L0 0.504302C0 0.504302 1.53378 0.882626 3.3288 2.16063L6.09359 14.7504H9.40931L14.4723 0.258934H11.0474ZM36.0779 14.75H39L36.4523 0.258547H33.8942C32.7129 0.258547 32.4251 1.33848 32.4251 1.33848L27.6789 14.75H30.9963L31.6597 12.5975H35.7052L36.0779 14.75ZM32.5762 9.624L34.2483 4.2011L35.1889 9.624H32.5762ZM27.9278 3.7437L28.3819 0.631831C28.3819 0.631831 26.9806 0 25.5197 0C23.9405 0 20.1902 0.81828 20.1902 4.79727C20.1902 8.54097 24.5918 8.58749 24.5918 10.5539C24.5918 12.5203 20.6437 12.168 19.3408 10.928L18.8677 14.1817C18.8677 14.1817 20.2886 15 22.4597 15C24.6313 15 27.9075 13.6669 27.9075 10.0388C27.9075 6.27103 23.4664 5.92023 23.4664 4.28211C23.4667 2.64362 26.566 2.8541 27.9278 3.7437Z" fill="white"/>
</svg>
